<svg
                                    xmlns="http://www.w3.org/2000/svg"
                                    xmlns:xlink="http://www.w3.org/1999/xlink"
                                    width="30"
                                    height="30"
                                    viewBox="0 0 100 70"
                                >
                                    <defs>
                                        <path
                                            id="a"
                                            d="M.04.062H99.65v69.219H.039z"
                                        />
                                    </defs>
                                    <g fill="none" fill-rule="evenodd">
                                        <g>
                                            <mask id="b" fill="#fff">
                                                <use xlink:href="#a" />
                                            </mask>
                                            <path
                                                fill="#0091e2"
                                                d="M56.362 31.865h10.29v-9.353h-10.29v9.353zm-12.16 0h10.289v-9.353H44.202v9.353zm-12.16 0h10.29v-9.353h-10.29v9.353zm-12.16 0h10.29v-9.353h-10.29v9.353zm-12.16 0h10.29v-9.353H7.721v9.353zm12.16-11.224h10.29v-9.354h-10.29v9.354zm12.16 0h10.29v-9.354h-10.29v9.354zm12.16 0h10.289v-9.354H44.202v9.354zm0-11.225h10.289V.062H44.202v9.354zm53.371 16.995c-2.247-1.503-7.41-2.054-11.383-1.304-.512-3.743-2.598-6.988-6.392-9.921l-2.181-1.455-1.456 2.183c-1.863 2.81-2.794 6.703-2.488 10.436.137 1.313.568 3.662 1.92 5.728-1.351.725-4.02 1.725-7.539 1.658H.384l-.132.78c-.636 3.751-.623 15.459 6.979 24.457 5.777 6.84 14.44 10.308 25.746 10.308 24.51 0 42.643-11.282 51.135-31.791 3.34.066 10.53.02 14.223-7.037.096-.162.317-.586.962-1.922l.354-.734-2.078-1.386z"
                                                mask="url(#b)"
                                            />
                                        </g>
                                        <path
                                            fill="#0091e2"
                                            d="M68.095 65.225h.3c.351 0 .638-.117.638-.402 0-.25-.185-.418-.587-.418-.167 0-.284.016-.351.033v.787zm-.017 1.558h-.637v-2.746c.251-.05.603-.085 1.056-.085.519 0 .752.085.953.203.15.116.268.333.268.601 0 .302-.234.536-.568.635v.035c.267.1.417.302.501.67.085.418.134.585.202.687h-.688c-.082-.102-.132-.351-.218-.671-.048-.302-.216-.434-.568-.434h-.301v1.105zm-1.692-1.442c0 1.223.904 2.195 2.143 2.195 1.207 0 2.092-.972 2.092-2.177 0-1.222-.885-2.21-2.11-2.21-1.22 0-2.125.988-2.125 2.192zm4.939 0c0 1.56-1.222 2.781-2.813 2.781-1.572 0-2.828-1.221-2.828-2.78 0-1.522 1.256-2.745 2.828-2.745 1.591 0 2.813 1.223 2.813 2.744z"
                                        />
                                    </g>
                                </svg>
