<svg id="svg" version="1.1" xmlns="http://www.w3.org/2000/svg" xmlns:xlink="http://www.w3.org/1999/xlink" width="400" height="400" viewBox="0, 0, 400,400"><g id="svgg"><path id="path0" d="M89.600 120.753 C 89.600 166.831,89.638 169.519,90.300 169.736 C 90.685 169.862,91.720 170.401,92.600 170.933 C 94.333 171.982,103.943 177.567,108.200 180.000 C 108.970 180.440,110.230 181.160,111.000 181.600 C 112.901 182.687,114.177 183.423,120.000 186.800 C 125.823 190.177,127.099 190.913,129.000 192.000 C 129.770 192.440,131.030 193.160,131.800 193.600 C 135.265 195.580,135.924 195.962,137.918 197.144 C 139.082 197.835,140.162 198.404,140.318 198.409 C 140.473 198.414,141.050 198.770,141.600 199.200 C 142.867 200.191,144.185 200.207,145.538 199.247 C 146.122 198.833,147.230 198.136,148.000 197.698 C 148.770 197.261,151.020 195.956,153.000 194.800 C 157.935 191.918,158.323 191.692,164.000 188.400 C 169.677 185.108,170.065 184.882,175.000 182.000 C 176.980 180.844,179.140 179.584,179.800 179.200 C 180.460 178.816,182.620 177.556,184.600 176.400 C 186.580 175.244,188.740 173.984,189.400 173.600 C 190.060 173.216,192.220 171.956,194.200 170.800 C 196.180 169.644,198.385 168.360,199.100 167.949 C 199.815 167.537,200.985 166.863,201.700 166.451 C 202.415 166.040,204.620 164.756,206.600 163.600 C 208.580 162.444,210.740 161.184,211.400 160.800 C 212.060 160.416,214.220 159.156,216.200 158.000 C 221.135 155.118,221.523 154.892,227.200 151.600 C 232.877 148.308,233.265 148.082,238.200 145.200 C 240.180 144.044,242.340 142.784,243.000 142.400 C 243.660 142.016,245.820 140.756,247.800 139.600 C 249.780 138.444,251.985 137.160,252.700 136.749 C 253.415 136.337,254.585 135.663,255.300 135.251 C 256.015 134.840,258.220 133.556,260.200 132.400 C 262.180 131.244,264.340 129.984,265.000 129.600 C 265.660 129.216,267.820 127.956,269.800 126.800 C 274.735 123.918,275.123 123.692,280.800 120.400 C 286.477 117.108,286.865 116.882,291.800 114.000 C 296.160 111.453,296.821 111.069,301.400 108.420 C 303.380 107.274,305.149 106.192,305.332 106.016 C 305.515 105.840,293.495 98.741,278.622 90.241 L 251.580 74.786 249.890 75.736 C 247.591 77.029,246.022 77.934,241.800 80.400 C 236.865 83.282,236.477 83.508,230.800 86.800 C 228.050 88.395,225.260 90.015,224.600 90.400 C 223.940 90.785,221.150 92.405,218.400 94.000 C 212.723 97.292,212.335 97.518,207.400 100.400 C 205.420 101.556,203.215 102.840,202.500 103.251 C 199.950 104.720,198.535 105.539,193.600 108.400 C 187.923 111.692,187.535 111.918,182.600 114.800 C 180.620 115.956,178.415 117.240,177.700 117.651 C 176.985 118.063,175.815 118.737,175.100 119.149 C 174.385 119.560,172.180 120.844,170.200 122.000 C 168.220 123.156,166.015 124.440,165.300 124.851 C 164.585 125.263,163.415 125.937,162.700 126.349 C 161.985 126.760,159.780 128.044,157.800 129.200 C 144.165 137.164,143.424 137.561,143.114 137.075 C 142.948 136.814,142.809 122.065,142.806 104.300 L 142.800 72.000 116.200 72.000 L 89.600 72.000 89.600 120.753 M89.600 280.200 L 89.600 328.000 116.200 328.000 L 142.800 328.000 142.800 295.446 L 142.800 262.892 141.826 262.254 C 141.290 261.902,140.255 261.274,139.526 260.856 C 138.442 260.236,132.636 256.884,124.100 251.951 C 123.385 251.538,122.215 250.862,121.500 250.450 C 120.785 250.037,117.950 248.395,115.200 246.800 C 109.377 243.423,108.101 242.687,106.200 241.600 C 104.125 240.414,102.716 239.599,97.200 236.393 C 91.157 232.881,90.287 232.406,89.900 232.402 C 89.735 232.401,89.600 253.910,89.600 280.200 M249.600 293.000 C 249.600 310.050,249.744 324.000,249.920 324.000 C 250.096 324.000,250.411 323.833,250.620 323.630 C 250.829 323.426,253.250 321.964,256.000 320.380 C 258.750 318.796,261.540 317.185,262.200 316.800 C 263.564 316.003,272.731 310.687,274.700 309.550 C 275.415 309.138,276.585 308.463,277.300 308.051 C 278.015 307.640,280.220 306.356,282.200 305.200 C 284.180 304.044,286.385 302.760,287.100 302.349 C 290.000 300.678,291.212 299.976,296.000 297.188 C 298.750 295.587,301.407 294.080,301.905 293.839 C 303.680 292.979,303.322 292.686,293.700 287.148 C 291.271 285.750,289.806 284.903,284.800 282.000 C 278.977 278.623,277.701 277.887,275.800 276.800 C 275.030 276.360,273.770 275.640,273.000 275.200 C 271.099 274.113,269.823 273.377,264.000 270.000 C 261.250 268.405,258.415 266.763,257.700 266.350 C 255.687 265.188,253.964 264.192,252.000 263.053 C 251.010 262.479,250.065 262.007,249.900 262.005 C 249.735 262.002,249.600 275.950,249.600 293.000 " stroke="none" fill="#171717" fill-rule="evenodd"></path><path id="path1" d="M103.129 71.900 C 110.460 71.961,122.340 71.961,129.529 71.900 C 136.718 71.839,130.720 71.789,116.200 71.789 C 101.680 71.789,95.798 71.839,103.129 71.900 M89.397 200.000 C 89.397 270.510,89.443 306.645,89.500 280.300 C 89.557 253.955,89.738 232.401,89.902 232.402 C 90.287 232.406,91.162 232.884,97.200 236.393 C 102.716 239.599,104.125 240.414,106.200 241.600 C 108.101 242.687,109.377 243.423,115.200 246.800 C 117.950 248.395,120.785 250.037,121.500 250.450 C 122.215 250.862,123.385 251.538,124.100 251.951 C 132.636 256.884,138.442 260.236,139.526 260.856 C 140.255 261.274,141.290 261.902,141.826 262.254 L 142.800 262.892 142.898 295.546 L 142.995 328.200 143.100 295.700 C 143.158 277.825,143.348 263.200,143.522 263.200 C 143.697 263.200,144.011 263.363,144.220 263.562 C 144.429 263.762,145.275 264.302,146.100 264.762 C 147.813 265.719,148.355 266.031,155.200 270.000 C 160.818 273.258,162.231 274.074,164.100 275.144 C 164.815 275.553,166.353 276.453,167.518 277.144 C 168.682 277.835,169.704 278.400,169.788 278.400 C 169.872 278.400,171.408 279.300,173.200 280.400 C 174.992 281.500,176.528 282.400,176.612 282.400 C 176.696 282.400,177.718 282.965,178.882 283.656 C 180.047 284.347,181.585 285.247,182.300 285.656 C 184.169 286.726,185.582 287.542,191.200 290.800 C 196.818 294.058,198.231 294.874,200.100 295.944 C 200.815 296.353,202.353 297.253,203.518 297.944 C 204.682 298.635,205.704 299.200,205.788 299.200 C 205.872 299.200,207.408 300.100,209.200 301.200 C 210.992 302.300,212.528 303.200,212.612 303.200 C 212.696 303.200,213.718 303.765,214.882 304.456 C 216.047 305.147,217.585 306.047,218.300 306.456 C 220.169 307.526,221.582 308.342,227.200 311.600 C 232.818 314.858,234.231 315.674,236.100 316.744 C 236.815 317.153,238.353 318.053,239.518 318.744 C 240.682 319.435,241.703 320.000,241.785 320.000 C 241.868 320.000,243.553 320.990,245.530 322.200 C 247.507 323.410,249.231 324.400,249.362 324.400 C 249.493 324.400,249.600 310.341,249.600 293.157 C 249.600 263.567,249.637 261.929,250.300 262.181 C 251.604 262.677,250.264 261.688,248.000 260.482 C 246.790 259.838,243.550 258.002,240.800 256.403 C 238.050 254.804,234.810 252.953,233.600 252.290 C 232.390 251.627,231.220 250.950,231.000 250.785 C 230.780 250.620,229.925 250.106,229.100 249.643 C 228.275 249.179,226.925 248.421,226.100 247.957 C 225.275 247.494,224.420 246.980,224.200 246.815 C 223.980 246.650,222.810 245.973,221.600 245.310 C 220.390 244.647,217.150 242.799,214.400 241.203 C 207.858 237.406,207.080 236.957,205.300 235.957 C 204.475 235.494,203.620 234.980,203.400 234.815 C 203.180 234.650,202.010 233.973,200.800 233.310 C 199.590 232.647,196.350 230.799,193.600 229.203 C 187.927 225.910,186.578 225.130,184.600 224.000 C 183.830 223.560,182.570 222.840,181.800 222.400 C 179.822 221.270,178.473 220.490,172.800 217.197 C 170.050 215.601,166.810 213.753,165.600 213.090 C 164.390 212.427,163.220 211.750,163.000 211.585 C 162.780 211.420,161.925 210.906,161.100 210.443 C 159.286 209.423,158.411 208.919,152.000 205.194 C 149.250 203.597,146.333 201.925,145.517 201.480 C 144.701 201.034,144.127 200.519,144.240 200.335 C 144.354 200.151,144.032 199.996,143.524 199.991 C 143.016 199.986,142.150 199.630,141.600 199.200 C 141.050 198.770,140.473 198.414,140.318 198.409 C 140.162 198.404,139.082 197.835,137.918 197.144 C 135.924 195.962,135.265 195.580,131.800 193.600 C 131.030 193.160,129.770 192.440,129.000 192.000 C 127.099 190.913,125.823 190.177,120.000 186.800 C 114.177 183.423,112.901 182.687,111.000 181.600 C 110.230 181.160,108.970 180.440,108.200 180.000 C 103.943 177.567,94.333 171.982,92.600 170.933 C 91.720 170.401,90.686 169.862,90.302 169.736 C 89.643 169.521,89.597 166.732,89.500 120.654 C 89.443 93.784,89.397 129.490,89.397 200.000 M142.991 104.400 C 142.991 122.330,143.040 129.665,143.100 120.700 C 143.160 111.735,143.160 97.065,143.100 88.100 C 143.040 79.135,142.991 86.470,142.991 104.400 M103.129 328.300 C 110.460 328.361,122.340 328.361,129.529 328.300 C 136.718 328.239,130.720 328.189,116.200 328.189 C 101.680 328.189,95.798 328.239,103.129 328.300 " stroke="none" fill="#24fb93" fill-rule="evenodd"></path><path id="path2" d="M0.000 200.000 L 0.000 400.000 200.000 400.000 L 400.000 400.000 400.000 200.000 L 400.000 0.000 200.000 0.000 L 0.000 0.000 0.000 200.000 M142.567 71.843 C 143.137 72.061,143.200 75.324,143.200 104.643 C 143.200 122.549,143.338 137.200,143.507 137.200 C 143.676 137.200,144.477 136.750,145.286 136.200 C 146.095 135.650,146.860 135.200,146.986 135.200 C 147.111 135.200,148.516 134.416,150.107 133.457 C 152.800 131.834,158.627 128.446,164.900 124.856 C 165.615 124.447,167.190 123.521,168.400 122.800 C 169.610 122.079,171.185 121.153,171.900 120.744 C 173.769 119.674,175.182 118.858,180.800 115.600 C 186.477 112.308,186.865 112.082,191.800 109.200 C 193.780 108.044,195.985 106.760,196.700 106.349 C 199.522 104.723,200.782 103.994,205.500 101.250 C 208.195 99.682,212.605 97.118,215.300 95.550 C 217.995 93.983,220.785 92.363,221.500 91.950 C 222.215 91.538,223.385 90.862,224.100 90.450 C 224.815 90.037,227.605 88.417,230.300 86.850 C 232.995 85.282,237.405 82.718,240.100 81.151 C 242.795 79.584,245.720 77.877,246.600 77.359 C 247.480 76.840,248.965 76.020,249.900 75.537 L 251.600 74.658 253.300 75.537 C 254.235 76.020,255.810 76.888,256.800 77.464 C 258.494 78.452,259.129 78.816,262.600 80.800 C 263.370 81.240,264.630 81.960,265.400 82.400 C 266.170 82.840,267.430 83.560,268.200 84.000 C 268.970 84.440,270.230 85.160,271.000 85.600 C 271.770 86.040,273.030 86.760,273.800 87.200 C 274.570 87.640,275.830 88.360,276.600 88.800 C 277.370 89.240,278.630 89.960,279.400 90.400 C 280.170 90.840,281.430 91.560,282.200 92.000 C 282.970 92.440,284.230 93.160,285.000 93.600 C 285.770 94.040,287.030 94.760,287.800 95.200 C 288.570 95.640,289.830 96.360,290.600 96.800 C 291.370 97.240,292.630 97.960,293.400 98.400 C 294.170 98.840,295.430 99.560,296.200 100.000 C 296.970 100.440,298.230 101.160,299.000 101.600 C 299.770 102.040,301.075 102.789,301.900 103.265 C 302.725 103.741,303.895 104.384,304.500 104.695 C 306.207 105.570,305.864 106.079,302.100 108.257 C 300.175 109.371,296.350 111.591,293.600 113.191 C 287.220 116.902,286.906 117.085,282.600 119.600 C 279.043 121.677,277.639 122.491,275.100 123.944 C 274.385 124.353,272.810 125.279,271.600 126.000 C 270.390 126.721,268.815 127.647,268.100 128.056 C 267.385 128.465,266.215 129.135,265.500 129.544 C 264.785 129.953,263.210 130.879,262.000 131.600 C 260.790 132.321,259.215 133.247,258.500 133.656 C 256.402 134.857,254.886 135.734,249.700 138.750 C 247.005 140.318,242.595 142.882,239.900 144.450 C 233.733 148.036,233.365 148.251,229.000 150.800 C 225.443 152.877,224.039 153.691,221.500 155.144 C 220.785 155.553,219.210 156.479,218.000 157.200 C 216.790 157.921,215.215 158.847,214.500 159.256 C 213.785 159.665,212.615 160.335,211.900 160.744 C 211.185 161.153,209.610 162.079,208.400 162.800 C 207.190 163.521,205.615 164.447,204.900 164.856 C 202.802 166.057,201.286 166.934,196.100 169.950 C 178.436 180.223,180.331 179.120,175.400 182.000 C 173.420 183.156,171.260 184.416,170.600 184.800 C 169.940 185.184,167.780 186.444,165.800 187.600 C 162.243 189.677,160.839 190.491,158.300 191.944 C 157.585 192.353,156.010 193.279,154.800 194.000 C 152.641 195.287,151.384 196.016,148.612 197.587 C 146.650 198.698,143.963 200.499,144.092 200.616 C 144.151 200.670,144.830 201.071,145.600 201.507 C 146.370 201.944,149.250 203.605,152.000 205.200 C 158.697 209.083,159.357 209.463,161.100 210.443 C 161.925 210.906,162.780 211.420,163.000 211.585 C 163.220 211.750,164.390 212.427,165.600 213.090 C 166.810 213.753,170.050 215.601,172.800 217.197 C 178.473 220.490,179.822 221.270,181.800 222.400 C 182.570 222.840,183.830 223.560,184.600 224.000 C 186.578 225.130,187.927 225.910,193.600 229.203 C 196.350 230.799,199.590 232.647,200.800 233.310 C 202.010 233.973,203.180 234.650,203.400 234.815 C 203.620 234.980,204.475 235.494,205.300 235.957 C 207.080 236.957,207.858 237.406,214.400 241.203 C 217.150 242.799,220.390 244.647,221.600 245.310 C 222.810 245.973,223.980 246.650,224.200 246.815 C 224.420 246.980,225.275 247.494,226.100 247.957 C 226.925 248.421,228.275 249.179,229.100 249.643 C 229.925 250.106,230.780 250.620,231.000 250.785 C 231.220 250.950,232.390 251.627,233.600 252.290 C 234.810 252.953,238.050 254.804,240.800 256.403 C 243.550 258.002,246.700 259.800,247.800 260.398 C 248.900 260.996,251.420 262.435,253.400 263.594 C 255.380 264.754,257.585 266.040,258.300 266.451 C 260.850 267.920,262.265 268.739,267.200 271.600 C 273.023 274.977,274.299 275.713,276.200 276.800 C 276.970 277.240,278.230 277.960,279.000 278.400 C 280.901 279.487,282.177 280.223,288.000 283.600 C 293.618 286.858,295.031 287.674,296.900 288.744 C 297.615 289.153,299.153 290.053,300.318 290.744 C 301.482 291.435,302.607 292.000,302.818 292.000 C 304.397 292.000,302.736 293.654,299.093 295.709 C 296.842 296.978,294.190 298.489,293.200 299.065 C 292.210 299.642,290.860 300.425,290.200 300.807 C 289.540 301.189,286.750 302.805,284.000 304.400 C 277.709 308.048,276.716 308.621,275.053 309.563 C 274.313 309.983,272.494 311.063,271.012 311.963 C 269.531 312.863,268.244 313.600,268.152 313.600 C 268.061 313.600,266.684 314.384,265.093 315.343 C 263.502 316.302,260.400 318.125,258.200 319.394 C 256.000 320.664,253.570 322.069,252.800 322.517 C 249.098 324.669,249.596 324.689,245.573 322.227 C 243.573 321.002,241.868 320.000,241.785 320.000 C 241.703 320.000,240.682 319.435,239.518 318.744 C 238.353 318.053,236.815 317.153,236.100 316.744 C 234.231 315.674,232.818 314.858,227.200 311.600 C 221.582 308.342,220.169 307.526,218.300 306.456 C 217.585 306.047,216.047 305.147,214.882 304.456 C 213.718 303.765,212.696 303.200,212.612 303.200 C 212.528 303.200,210.992 302.300,209.200 301.200 C 207.408 300.100,205.872 299.200,205.788 299.200 C 205.704 299.200,204.682 298.635,203.518 297.944 C 202.353 297.253,200.815 296.353,200.100 295.944 C 198.231 294.874,196.818 294.058,191.200 290.800 C 185.582 287.542,184.169 286.726,182.300 285.656 C 181.585 285.247,180.047 284.347,178.882 283.656 C 177.718 282.965,176.696 282.400,176.612 282.400 C 176.528 282.400,174.992 281.500,173.200 280.400 C 171.408 279.300,169.872 278.400,169.788 278.400 C 169.704 278.400,168.682 277.835,167.518 277.144 C 166.353 276.453,164.815 275.553,164.100 275.144 C 162.231 274.074,160.818 273.258,155.200 270.000 C 148.355 266.031,147.813 265.719,146.100 264.762 C 145.275 264.302,144.429 263.762,144.220 263.562 C 144.011 263.363,143.696 263.200,143.520 263.200 C 143.344 263.200,143.200 277.761,143.200 295.557 C 143.200 324.694,143.137 327.939,142.567 328.157 C 141.741 328.474,90.659 328.474,89.833 328.157 C 88.979 327.830,88.847 72.209,89.700 71.865 C 90.421 71.574,141.811 71.553,142.567 71.843 " stroke="none" fill="#fbfbfb" fill-rule="evenodd"></path></g></svg>